<svg width="26" height="26" viewBox="0 0 26 26" fill="none" xmlns="http://www.w3.org/2000/svg">
<g clip-path="url(#clip0_601_1115)">
<path d="M25.5502 3.05145C24.7574 3.48527 23.8803 3.75346 23.0226 3.92698C23.432 3.84022 24.0297 2.94891 24.2702 2.58608C24.634 2.03393 24.9395 1.40292 25.1084 0.724585C25.1279 0.669371 25.1473 0.606269 25.1018 0.566831C25.0499 0.543168 25.0109 0.551056 24.9654 0.582606C24.0103 1.20573 23.0226 1.65533 21.9634 1.97873C21.879 2.00239 21.814 1.97873 21.7555 1.91563C21.671 1.79732 21.5866 1.68689 21.4955 1.59223C21.0537 1.13474 20.5793 0.779798 20.0401 0.511617C19.3383 0.164559 18.5716 0.0146935 17.8113 0.077795C17.0771 0.133009 16.3493 0.385415 15.6995 0.803461C15.0433 1.22151 14.4584 1.79732 13.9971 2.49142C13.5163 3.20921 13.1589 4.06108 12.9768 4.96816C12.8015 5.8358 12.8145 6.70345 12.9249 7.57898C12.9379 7.72885 12.9314 7.74463 12.821 7.72885C8.70132 6.98741 5.28995 5.1969 2.51537 1.36348C2.39191 1.19785 2.32693 1.19785 2.22946 1.37927C1.01437 3.58782 1.60567 7.12939 3.11967 8.87257C3.32111 9.1013 3.52904 9.33794 3.74996 9.5509C3.66549 9.57457 2.65832 9.44047 1.76162 8.87257C1.63816 8.77791 1.57968 8.83313 1.57318 8.99877C1.56019 9.2354 1.57968 9.45626 1.60567 9.71654C1.8396 11.9566 3.11317 14.0232 4.8611 14.8278C5.06902 14.9303 5.29645 15.0249 5.52387 15.0723C5.1275 15.1748 4.71814 15.2537 3.57452 15.1432C3.43157 15.1117 3.37958 15.1985 3.43157 15.3641C4.28929 18.2037 6.14117 19.0476 7.53171 19.5288C7.72014 19.5682 7.90208 19.5682 8.09052 19.6235C8.07752 19.6472 8.07102 19.6472 8.05804 19.6629C7.59669 20.5148 6.00471 21.1457 5.25746 21.4613C3.90591 22.0371 2.43739 22.2896 1.00787 22.1238C0.780444 22.0844 0.728462 22.0844 0.669981 22.1238C0.605003 22.1712 0.663482 22.2343 0.734959 22.3131C1.02736 22.5419 1.31976 22.7549 1.61867 22.9521C2.52837 23.5357 3.47056 24.0011 4.45823 24.3324C9.56554 26.0441 15.3161 24.7899 19.1498 20.1598C22.1584 16.5315 23.2176 11.5228 23.2176 6.50626C23.2176 6.30907 23.4059 6.19864 23.5229 6.0961C24.3091 5.37832 24.9265 4.52645 25.5113 3.57204C25.6413 3.35907 25.6347 3.16977 25.6347 3.09089C25.6347 3.07511 25.6347 3.06722 25.6347 3.06722C25.6477 2.97258 25.6542 2.99623 25.5502 3.05145Z" fill="white"/>
<path fill-rule="evenodd" clip-rule="evenodd" d="M8.91553 24.9632C8.91553 24.9163 9.35925 24.9632 8.91553 24.9632C8.91553 24.9398 8.96773 24.9632 8.91553 24.9632Z" fill="white"/>
<path fill-rule="evenodd" clip-rule="evenodd" d="M17.7525 0.092041C17.7267 0.114002 17.6877 0.114002 17.6489 0.092041C17.6877 0.092041 17.7267 0.092041 17.7525 0.092041Z" fill="white"/>
</g>
<defs>
<clipPath id="clip0_601_1115">
<rect width="25" height="25" fill="white" transform="translate(0.641846 0.0637207)"/>
</clipPath>
</defs>
</svg>
