<svg width="24" height="26" viewBox="0 0 24 26" fill="none" xmlns="http://www.w3.org/2000/svg">
<g clip-path="url(#clip0_601_1132)">
<path d="M22.5147 15.2394V23.9688C22.5147 24.1818 22.3599 24.3591 22.1739 24.3591H18.2386C18.0527 24.3591 17.8977 24.1818 17.8977 23.9688V15.8497C17.8977 13.7135 17.2284 12.2514 15.5614 12.2514C14.2848 12.2514 13.5287 13.2309 13.194 14.1819C13.07 14.5225 13.039 14.991 13.039 15.4736V23.9688C13.039 24.1818 12.8841 24.3591 12.6982 24.3591H8.76288C8.57076 24.3591 8.42202 24.1818 8.42202 23.9688C8.42822 21.8041 8.4716 11.3147 8.42822 8.85194C8.42202 8.63193 8.57696 8.4545 8.76908 8.4545H12.6982C12.8841 8.4545 13.039 8.63194 13.039 8.84485V10.7114C13.0266 10.7256 13.0142 10.7469 13.008 10.7611H13.039V10.7114C13.6526 9.63262 14.7495 8.08545 17.2037 8.08545C20.2403 8.08545 22.5147 10.3565 22.5147 15.2394ZM1.59256 24.3591H5.52787C5.71379 24.3591 5.86873 24.1818 5.86873 23.9688V8.84485C5.86873 8.63194 5.71379 8.4545 5.52787 8.4545H1.59256C1.40664 8.4545 1.25171 8.63194 1.25171 8.84485V23.9688C1.25171 24.1888 1.40045 24.3591 1.59256 24.3591Z" fill="white"/>
<path d="M5.89373 3.60018C5.89373 5.16155 4.78439 6.43193 3.42098 6.43193C2.05756 6.43193 0.948242 5.16155 0.948242 3.60018C0.948242 2.03882 2.05756 0.768433 3.42098 0.768433C4.78439 0.768433 5.89373 2.03882 5.89373 3.60018Z" fill="white"/>
</g>
<defs>
<clipPath id="clip0_601_1132">
<rect width="22.8261" height="25" fill="white" transform="translate(0.72876 0.0637207)"/>
</clipPath>
</defs>
</svg>
