<svg width="26" height="25" viewBox="0 0 26 25" fill="none" xmlns="http://www.w3.org/2000/svg">
<g clip-path="url(#clip0_601_1127)">
<path d="M19.1329 4.99659C18.355 4.99659 17.7222 5.62937 17.7222 6.40727C17.7222 7.18518 18.355 7.81796 19.1329 7.81796C19.9107 7.81796 20.5435 7.18518 20.5435 6.40727C20.5435 5.62356 19.9107 4.99659 19.1329 4.99659ZM12.8748 6.80203C9.6122 6.80203 6.95919 9.45504 6.95919 12.7176C6.95919 15.9801 9.6122 18.6331 12.8748 18.6331C16.1374 18.6331 18.7903 15.9801 18.7903 12.7176C18.7903 9.45504 16.1315 6.80203 12.8748 6.80203ZM12.8748 16.5084C10.7849 16.5084 9.08392 14.8075 9.08392 12.7176C9.08392 10.6277 10.7849 8.92676 12.8748 8.92676C14.9647 8.92676 16.6656 10.6277 16.6656 12.7176C16.6598 14.8075 14.9647 16.5084 12.8748 16.5084ZM24.8104 7.80054C24.8104 3.81232 21.5768 0.584595 17.5944 0.584595H8.06801C4.07979 0.584595 0.852051 3.81813 0.852051 7.80054V17.327C0.852051 21.3152 4.08559 24.5429 8.06801 24.5429H17.5944C21.5827 24.5429 24.8104 21.3094 24.8104 17.327V7.80054ZM22.5522 17.327C22.5522 20.0613 20.3345 22.2847 17.5944 22.2847H8.06801C5.32791 22.2847 3.1103 20.0671 3.1103 17.327V7.80054C3.1103 5.06626 5.32791 2.84284 8.06801 2.84284H17.5944C20.3345 2.84284 22.5522 5.06046 22.5522 7.80054V17.327Z" fill="white"/>
</g>
<defs>
<clipPath id="clip0_601_1127">
<rect width="25" height="23.9583" fill="white" transform="translate(0.641846 0.584595)"/>
</clipPath>
</defs>
</svg>
