<svg width="13" height="26" viewBox="0 0 13 26" fill="none" xmlns="http://www.w3.org/2000/svg">
<g clip-path="url(#clip0_601_1110)">
<path fill-rule="evenodd" clip-rule="evenodd" d="M2.79674 12.6617V24.7479C2.79674 24.9247 2.93978 25.0637 3.12182 25.0637H7.73799C7.92003 25.0637 8.06307 24.9247 8.06307 24.7479V12.4658H11.4114C11.5804 12.4658 11.7169 12.3395 11.7365 12.1751L12.0616 8.47287C12.0746 8.28964 11.9315 8.1317 11.7365 8.1317H8.06957V5.50976C8.06957 4.89693 8.5832 4.39781 9.21386 4.39781H11.795C11.9771 4.39781 12.1201 4.25882 12.1201 4.08192V0.379616C12.1201 0.202715 11.9771 0.0637207 11.795 0.0637207H7.43241C4.87077 0.0637207 2.79674 2.07913 2.79674 4.56839V8.13801H0.488657C0.30661 8.13801 0.163574 8.27701 0.163574 8.45392V12.1562C0.163574 12.3331 0.30661 12.4721 0.488657 12.4721H2.79674V12.6617Z" fill="white"/>
</g>
<defs>
<clipPath id="clip0_601_1110">
<rect width="11.9565" height="25" fill="white" transform="translate(0.163574 0.0637207)"/>
</clipPath>
</defs>
</svg>
