<svg width="26" height="21" viewBox="0 0 26 21" fill="none" xmlns="http://www.w3.org/2000/svg">
<g clip-path="url(#clip0_601_1122)">
<path d="M24.7742 6.90874C24.7742 3.58729 22.4254 0.890381 19.5189 0.890381H5.89718C2.99683 0.890381 0.641846 3.58019 0.641846 6.90874V14.2188C0.641846 17.5402 2.99064 20.2372 5.89718 20.2372H19.5189C22.4192 20.2372 24.7742 17.5473 24.7742 14.2188V6.90874ZM16.1786 10.9328L10.7435 14.3465C10.508 14.4955 10.2973 14.2968 10.2973 13.9916V6.9868C10.2973 6.67453 10.5142 6.48291 10.7497 6.63195L16.222 10.2231C16.4636 10.3863 16.4264 10.7838 16.1786 10.9328Z" fill="white"/>
</g>
<defs>
<clipPath id="clip0_601_1122">
<rect width="25" height="20.6522" fill="white" transform="translate(0.641846 0.237671)"/>
</clipPath>
</defs>
</svg>
