<svg width="17" height="17" viewBox="0 0 17 17" fill="none" xmlns="http://www.w3.org/2000/svg">
<g clip-path="url(#clip0_601_1223)">
<path d="M0.467285 9.06995C0.467285 8.2887 0.592285 7.44495 0.842285 6.6012C1.09229 5.7262 1.40479 4.94495 1.84229 4.2887C2.49854 3.1637 3.46729 2.2887 4.74854 1.6637C6.06104 1.00745 7.37354 0.694946 8.71729 0.726196C10.1235 0.726196 11.436 1.13245 12.7173 2.00745C13.9985 2.88245 14.9673 3.94495 15.6235 5.2262C16.1548 6.1637 16.436 7.2887 16.436 8.6637C16.436 10.2574 16.061 11.6949 15.311 12.9137C14.5298 14.1637 13.5298 15.1012 12.2173 15.7574C10.936 16.4137 9.49854 16.7262 7.90479 16.7262C8.12354 16.3199 8.43604 15.7574 8.87354 14.9762C9.31104 14.1949 9.71729 13.5074 10.061 12.8824C10.4048 12.2574 10.7485 11.6637 11.0923 11.1324V11.1012C11.1548 11.0699 11.2173 10.9449 11.311 10.8199C11.4048 10.6637 11.4673 10.5699 11.4985 10.5074C11.561 10.4449 11.5923 10.3512 11.6548 10.2262C11.7173 10.1012 11.7485 10.0074 11.811 9.88245C11.8735 9.7887 11.9048 9.69495 11.9048 9.56995C11.9673 9.31995 11.9985 9.0387 11.9985 8.7887C11.9985 7.94495 11.7173 7.19495 11.2173 6.50745L15.6235 5.2262C12.5923 5.2262 10.311 5.2262 8.77979 5.2262C8.68604 5.2262 8.59229 5.2262 8.40479 5.2262C7.37354 5.2262 6.49854 5.63245 5.77979 6.4137C5.06104 7.19495 4.77979 8.13245 4.87354 9.1637C4.87354 9.06995 4.84229 8.94495 4.84229 8.7262C4.84229 8.25745 4.93604 7.8512 5.09229 7.50745L1.84229 4.2887L4.99854 9.7262C5.18604 10.5074 5.62354 11.1324 6.27979 11.6012C6.93604 12.1012 7.65479 12.3199 8.40479 12.3512C8.59229 12.3512 8.77979 12.3199 8.93604 12.2887L7.90479 16.7262C6.65479 16.7262 5.46729 16.3199 4.31104 15.5699C3.18604 14.8199 2.24854 13.8824 1.52979 12.7574C0.811035 11.6637 0.467285 10.4449 0.467285 9.06995ZM5.46729 8.7887C5.46729 9.6012 5.74854 10.2887 6.34229 10.8824C6.93604 11.4449 7.62354 11.7574 8.40479 11.7574C9.21729 11.7574 9.90479 11.4762 10.5298 10.8824C11.1235 10.2887 11.4048 9.56995 11.3735 8.7887C11.3735 7.9762 11.0923 7.25745 10.5298 6.69495C9.93604 6.1012 9.24854 5.81995 8.40479 5.81995C7.59229 5.81995 6.90479 6.1012 6.31104 6.69495C5.74854 7.25745 5.46729 7.94495 5.46729 8.7887Z" fill="#F0F0F0"/>
</g>
<defs>
<clipPath id="clip0_601_1223">
<rect width="15.97" height="16" fill="white" transform="matrix(1 0 0 -1 0.466553 16.9137)"/>
</clipPath>
</defs>
</svg>
